<svg id="svg" version="1.1" xmlns="http://www.w3.org/2000/svg" xmlns:xlink="http://www.w3.org/1999/xlink" width="400" height="400" viewBox="0, 0, 400,400"><g id="svgg"><path id="path0" d="M179.400 0.867 C 174.782 1.389,173.216 1.904,171.731 3.389 L 170.413 4.707 170.601 9.053 C 170.704 11.444,170.878 16.640,170.988 20.600 C 171.153 26.528,172.170 40.931,172.982 48.829 C 173.082 49.803,173.269 51.770,173.397 53.200 C 173.525 54.630,173.800 57.420,174.008 59.400 C 174.216 61.380,174.389 63.732,174.393 64.627 L 174.400 66.254 172.100 66.975 C 162.416 70.012,159.000 75.181,159.000 86.800 C 159.000 96.642,162.279 102.863,169.155 106.067 L 171.710 107.258 171.427 112.529 C 170.465 130.429,166.972 138.978,151.253 161.903 C 131.151 191.221,126.227 204.007,123.030 235.200 C 121.861 246.604,121.510 265.765,121.979 292.600 C 122.194 304.920,122.478 322.110,122.611 330.800 C 122.744 339.490,123.007 350.055,123.195 354.278 C 123.383 358.500,123.440 362.325,123.322 362.778 C 123.203 363.230,123.283 363.600,123.498 363.600 C 123.714 363.600,124.001 364.545,124.137 365.700 C 126.225 383.420,140.197 395.566,162.200 398.789 C 169.116 399.802,177.203 400.069,189.800 399.703 C 195.520 399.536,205.510 399.538,212.000 399.707 C 253.879 400.799,272.168 391.146,276.598 365.613 C 278.560 354.303,279.463 253.157,277.754 236.000 C 274.632 204.639,269.461 191.035,249.779 162.400 C 234.279 139.849,229.931 129.460,229.332 113.545 L 229.081 106.890 230.321 106.617 C 232.357 106.170,236.120 103.493,236.991 101.872 C 237.426 101.063,237.892 100.400,238.027 100.400 C 239.398 100.400,241.640 93.076,241.823 88.000 C 241.979 83.649,241.765 82.134,240.326 77.400 C 237.698 68.755,228.658 64.958,210.352 64.809 C 209.422 64.801,209.279 64.608,209.083 63.100 C 208.962 62.165,208.045 56.180,207.046 49.800 C 206.047 43.420,204.772 34.510,204.214 30.000 C 202.392 15.295,200.654 5.556,199.652 4.450 C 196.918 1.428,188.149 -0.123,179.400 0.867 M192.890 6.204 C 188.434 7.291,178.000 7.417,178.000 6.384 C 178.000 5.868,180.006 5.730,187.800 5.708 C 194.476 5.690,194.846 5.726,192.890 6.204 M197.807 9.500 C 197.653 9.885,197.022 11.820,196.404 13.800 C 193.070 24.477,185.314 36.982,179.094 41.706 L 177.638 42.811 177.428 41.506 C 177.313 40.788,177.024 38.130,176.786 35.600 C 176.182 29.166,174.465 15.892,173.850 12.899 C 173.223 9.851,173.042 10.017,176.303 10.649 C 181.995 11.750,193.364 10.943,196.307 9.228 C 197.422 8.579,198.123 8.706,197.807 9.500 M199.820 32.646 L 200.838 41.892 199.669 45.246 C 196.159 55.315,191.767 63.688,185.951 71.400 C 182.052 76.571,180.833 77.905,180.872 76.961 C 180.889 76.542,180.532 72.780,180.078 68.600 C 179.127 59.839,178.990 58.472,178.347 51.357 L 177.874 46.115 181.685 42.357 C 187.888 36.241,193.226 28.015,196.323 19.800 C 196.986 18.040,197.667 16.240,197.836 15.800 C 198.032 15.288,198.261 16.512,198.472 19.200 C 198.653 21.510,199.260 27.561,199.820 32.646 M204.044 62.800 C 205.782 73.493,206.595 77.557,207.436 79.748 C 207.804 80.709,202.677 80.933,192.356 80.407 C 181.621 79.860,182.231 80.031,184.063 78.093 C 189.976 71.839,195.991 61.308,199.652 50.800 L 201.393 45.800 201.728 48.200 C 201.912 49.520,202.954 56.090,204.044 62.800 M223.600 70.566 C 227.180 71.337,230.206 72.528,233.234 74.359 L 235.799 75.910 236.409 80.655 C 237.319 87.738,237.587 87.548,228.400 86.345 C 219.333 85.157,219.040 85.031,224.000 84.440 C 231.972 83.491,233.946 82.550,234.285 79.540 C 234.754 75.381,231.301 73.865,217.600 72.216 C 210.423 71.352,210.400 71.346,210.400 70.330 C 210.400 69.327,218.521 69.472,223.600 70.566 M175.200 72.365 C 175.200 73.424,175.046 73.555,173.500 73.813 C 168.791 74.596,166.400 76.230,166.400 78.663 C 166.400 81.851,167.769 82.945,172.871 83.836 C 174.599 84.138,178.215 85.182,180.906 86.157 C 190.008 89.454,202.449 92.489,211.400 93.596 C 213.380 93.841,216.350 94.227,218.000 94.455 C 219.650 94.683,224.260 94.969,228.244 95.090 L 235.489 95.310 235.019 97.155 L 234.548 99.000 225.774 99.114 C 205.051 99.382,184.707 94.324,168.547 84.886 C 163.746 82.082,163.880 82.278,164.442 78.876 C 165.023 75.361,166.572 73.977,172.186 71.954 C 174.922 70.969,175.200 71.007,175.200 72.365 M217.615 76.578 C 230.736 78.233,230.582 78.939,216.899 79.857 C 214.777 79.999,212.761 80.135,212.420 80.158 C 211.947 80.190,211.771 79.701,211.679 78.100 C 211.537 75.631,211.065 75.752,217.615 76.578 M175.600 77.767 C 175.600 77.859,175.700 78.195,175.822 78.514 C 176.012 79.008,175.730 79.030,173.922 78.662 C 171.937 78.259,171.878 78.214,173.000 77.963 C 174.488 77.630,175.600 77.547,175.600 77.767 M167.495 86.427 C 186.113 97.197,201.699 101.417,221.812 101.131 C 231.838 100.989,232.140 101.119,225.560 102.737 C 215.426 105.229,204.982 106.066,199.931 104.793 C 190.537 102.425,182.144 99.482,175.921 96.374 C 173.904 95.366,164.055 89.656,163.981 89.452 C 163.782 88.900,163.574 84.400,163.747 84.400 C 163.881 84.400,165.568 85.312,167.495 86.427 M208.800 85.200 C 213.079 85.444,215.544 85.803,218.200 86.568 C 222.183 87.715,229.489 88.797,233.320 88.806 C 236.776 88.815,237.017 89.029,236.411 91.555 C 236.141 92.680,235.713 93.599,235.460 93.597 C 234.473 93.592,220.088 92.404,218.200 92.172 C 211.119 91.302,201.270 89.379,193.635 87.375 C 186.388 85.473,186.121 85.233,191.200 85.183 C 193.510 85.160,196.210 84.987,197.200 84.799 C 198.190 84.611,199.900 84.550,201.000 84.663 C 202.100 84.776,205.610 85.018,208.800 85.200 M168.350 94.996 C 174.747 98.685,184.358 102.703,191.343 104.608 C 194.731 105.532,194.021 105.625,188.593 104.968 C 177.998 103.685,168.054 101.063,166.552 99.155 C 166.312 98.850,165.901 97.700,165.640 96.600 C 165.378 95.500,165.070 94.285,164.955 93.900 C 164.662 92.917,164.855 92.979,168.350 94.996 M177.723 108.580 L 178.846 108.827 178.586 112.713 C 177.112 134.742,170.858 151.598,156.963 171.000 C 141.935 191.983,133.177 216.874,131.982 242.000 C 131.799 245.850,131.533 249.540,131.391 250.200 C 131.001 252.013,130.896 313.823,131.261 326.400 C 132.233 359.887,132.359 361.406,134.684 367.718 C 137.950 376.587,147.449 384.568,159.200 388.314 C 167.521 390.967,170.008 391.114,200.500 390.757 C 209.686 390.650,215.600 390.726,215.600 390.953 C 215.600 391.472,227.684 390.943,232.400 390.217 C 251.063 387.343,263.806 377.297,267.174 362.800 C 269.041 354.768,270.473 277.749,269.176 255.200 C 268.980 251.790,268.646 245.670,268.435 241.600 C 267.488 223.363,262.526 205.328,253.579 187.600 C 250.110 180.726,247.094 175.979,240.554 167.094 C 239.589 165.784,238.800 164.496,238.800 164.231 C 238.800 163.967,238.430 163.354,237.977 162.868 C 230.380 154.714,221.088 124.543,222.440 112.420 C 222.675 110.319,222.897 108.570,222.934 108.533 C 222.971 108.496,223.516 108.336,224.145 108.178 L 225.289 107.891 224.944 109.646 C 222.022 124.535,227.791 140.600,245.183 166.000 C 258.087 184.846,261.985 192.071,265.931 204.461 C 269.926 217.007,271.627 228.493,272.999 252.200 C 273.356 258.360,273.682 263.940,273.724 264.600 C 273.766 265.260,273.660 270.390,273.489 276.000 C 273.126 287.885,272.519 316.806,272.199 337.400 C 271.815 362.137,271.063 368.530,267.767 375.070 C 262.214 386.089,250.294 392.350,231.400 394.169 C 230.300 394.275,225.440 394.468,220.600 394.599 C 215.760 394.729,209.280 395.025,206.200 395.257 C 199.367 395.771,200.767 395.772,194.600 395.245 C 191.740 395.000,184.360 394.618,178.200 394.395 C 156.414 393.609,145.829 390.170,137.383 381.134 C 130.197 373.447,129.028 367.436,128.605 336.000 C 128.479 326.650,128.298 315.760,128.202 311.800 C 128.106 307.840,127.836 296.140,127.601 285.800 C 127.367 275.460,127.105 266.676,127.019 266.280 C 126.934 265.883,127.020 263.903,127.210 261.880 C 127.400 259.856,127.583 257.030,127.617 255.600 C 127.650 254.170,127.830 250.930,128.017 248.400 C 128.203 245.870,128.453 242.214,128.573 240.275 C 130.364 211.207,136.303 194.360,153.697 169.000 C 172.923 140.971,178.725 125.475,175.897 109.711 C 175.668 108.433,175.716 108.061,176.097 108.178 C 176.374 108.263,177.105 108.444,177.723 108.580 M181.381 115.000 C 181.490 118.080,181.665 121.230,181.769 122.000 C 181.874 122.770,182.336 126.820,182.797 131.000 C 183.540 137.743,185.274 150.478,185.819 153.200 L 186.020 154.200 181.310 154.200 C 176.398 154.200,174.272 154.604,170.459 156.262 C 169.164 156.825,168.401 156.996,168.530 156.696 C 168.646 156.423,169.761 153.970,171.005 151.244 C 175.075 142.334,178.340 131.007,179.261 122.606 C 179.478 120.623,179.900 116.936,180.198 114.413 C 180.496 111.890,180.638 109.662,180.514 109.461 C 180.390 109.260,180.490 109.165,180.736 109.248 C 181.024 109.346,181.254 111.392,181.381 115.000 M220.624 112.900 C 220.567 126.035,224.248 140.945,230.744 153.889 L 232.761 157.908 230.681 157.104 C 229.536 156.661,227.169 156.089,225.420 155.832 L 222.240 155.366 219.757 142.868 C 218.391 135.995,216.614 127.291,215.807 123.527 C 215.001 119.763,214.288 115.764,214.223 114.641 C 214.158 113.519,213.974 112.042,213.814 111.361 L 213.524 110.122 216.062 109.717 C 217.458 109.494,219.059 109.286,219.620 109.256 L 220.640 109.200 220.624 112.900 M190.600 110.375 C 193.020 110.596,198.383 110.705,202.518 110.616 L 210.036 110.455 209.771 111.327 C 206.951 120.588,197.553 138.908,192.396 145.200 C 191.584 146.190,190.417 147.769,189.802 148.708 C 189.186 149.648,188.598 150.331,188.493 150.227 C 187.973 149.707,185.851 134.870,184.799 124.400 C 183.982 116.268,183.800 114.637,183.333 111.240 L 183.091 109.480 184.646 109.726 C 185.501 109.861,188.180 110.153,190.600 110.375 M211.965 116.600 C 212.211 118.580,213.278 125.280,214.336 131.488 L 216.261 142.776 214.231 146.919 C 211.153 153.200,208.765 156.160,203.184 160.613 L 200.504 162.751 197.952 162.214 C 192.808 161.131,190.379 160.248,190.204 159.400 C 190.114 158.960,189.725 157.194,189.341 155.476 L 188.643 152.353 189.621 150.553 C 190.160 149.563,191.299 147.908,192.153 146.876 C 198.847 138.787,206.673 124.014,209.681 113.790 C 210.779 110.056,211.221 110.600,211.965 116.600 M218.015 151.556 C 218.701 155.363,219.500 159.270,219.792 160.240 C 220.300 161.929,220.286 162.012,219.461 162.193 C 215.056 163.159,203.200 163.602,203.200 162.800 C 203.200 162.580,203.373 162.400,203.584 162.400 C 205.360 162.400,214.043 151.158,215.631 146.803 C 216.117 145.471,216.571 144.438,216.642 144.508 C 216.712 144.578,217.330 147.750,218.015 151.556 M140.981 214.764 C 143.795 220.206,149.241 222.947,157.200 222.928 C 162.499 222.916,163.636 222.718,173.000 220.180 C 184.372 217.098,188.039 217.850,198.200 225.344 C 212.628 235.986,218.477 235.672,231.501 223.559 C 239.245 216.357,241.179 215.617,249.140 216.805 C 255.186 217.708,258.790 216.851,260.667 214.066 C 261.146 213.356,261.629 212.923,261.740 213.104 C 262.684 214.631,265.293 227.679,266.458 236.704 C 267.417 244.131,267.817 307.034,267.062 331.600 C 266.875 337.650,266.596 346.740,266.441 351.800 C 266.161 360.911,266.146 361.031,264.876 364.233 C 259.939 376.678,248.998 384.960,233.699 387.831 C 223.815 389.686,178.441 389.669,167.546 387.806 C 147.492 384.378,135.100 371.908,134.350 354.400 C 133.331 330.598,132.682 261.365,133.424 255.562 C 133.548 254.593,133.483 252.360,133.281 250.600 C 132.718 245.692,134.633 230.682,137.228 219.683 C 137.866 216.978,138.694 213.738,139.067 212.483 L 139.747 210.200 140.048 211.869 C 140.213 212.788,140.633 214.090,140.981 214.764 M177.281 228.634 C 167.582 233.468,175.114 248.212,185.954 245.611 C 195.548 243.309,195.648 229.425,186.076 228.621 C 184.956 228.527,183.683 228.258,183.246 228.025 C 181.894 227.301,179.457 227.550,177.281 228.634 M243.664 233.631 C 242.309 234.308,241.200 235.098,241.200 235.385 C 241.200 235.673,240.739 236.210,240.175 236.579 C 230.350 243.017,232.186 257.827,242.800 257.757 C 250.830 257.704,258.832 248.303,257.173 240.871 C 255.659 234.093,249.425 230.752,243.664 233.631 M168.242 290.015 C 162.818 291.638,163.349 300.064,168.914 300.692 C 175.369 301.419,177.507 291.745,171.274 290.014 C 169.610 289.552,169.791 289.552,168.242 290.015 M185.782 291.382 C 183.773 293.391,185.008 296.560,187.800 296.560 C 188.888 296.560,189.510 296.305,190.052 295.636 C 192.512 292.598,188.531 288.632,185.782 291.382 M215.279 296.269 C 211.760 298.003,211.971 303.823,215.588 304.797 C 219.042 305.727,221.615 304.000,222.139 300.400 C 222.662 296.801,218.853 294.508,215.279 296.269 M243.205 304.944 C 239.667 306.101,240.656 310.857,244.889 313.046 C 248.492 314.909,252.181 310.084,249.500 307.014 C 248.106 305.418,244.939 304.376,243.205 304.944 M165.703 312.412 C 164.540 312.879,163.203 315.085,163.201 316.540 C 163.196 320.743,167.378 323.013,170.841 320.687 C 175.912 317.280,171.454 310.099,165.703 312.412 M204.490 315.602 C 201.399 317.486,201.858 321.765,205.349 323.617 C 207.428 324.719,209.409 324.482,210.945 322.945 C 214.854 319.037,209.271 312.687,204.490 315.602 M188.376 319.857 C 184.538 322.240,184.779 327.320,188.828 329.414 C 193.231 331.691,198.167 326.516,195.888 322.012 C 194.645 319.556,190.689 318.421,188.376 319.857 M245.125 322.392 C 241.906 324.142,241.470 326.941,243.900 330.260 C 247.018 334.518,250.405 334.664,253.363 330.670 C 256.840 325.975,250.413 319.517,245.125 322.392 M223.317 323.280 C 222.005 323.915,220.429 326.422,220.167 328.296 C 219.381 333.916,227.032 336.603,230.026 331.758 C 232.946 327.033,228.136 320.953,223.317 323.280 M142.943 335.725 C 140.053 338.373,140.742 342.911,144.269 344.472 C 147.522 345.911,150.876 344.272,151.632 340.875 C 152.772 335.750,146.786 332.202,142.943 335.725 M168.139 337.598 C 163.252 340.821,166.494 348.487,172.200 347.200 C 176.667 346.193,178.036 342.025,175.039 338.559 C 173.392 336.653,170.236 336.214,168.139 337.598 M199.857 338.411 C 193.593 340.288,195.789 350.176,202.202 348.973 C 207.512 347.977,208.363 340.998,203.447 338.765 C 201.620 337.936,201.487 337.923,199.857 338.411 M241.918 345.847 C 238.816 348.054,238.551 350.813,241.192 353.392 C 244.029 356.163,248.146 355.630,249.732 352.287 C 252.100 347.298,246.438 342.632,241.918 345.847 M220.885 348.855 C 216.262 351.816,218.443 358.954,223.970 358.954 C 228.105 358.954,230.472 354.602,228.546 350.543 C 227.338 347.998,223.533 347.160,220.885 348.855 M152.204 355.070 C 148.702 356.287,146.516 359.782,147.608 362.420 C 149.087 365.990,153.563 366.137,156.130 362.700 C 159.552 358.118,157.108 353.368,152.204 355.070 M185.400 358.777 C 182.911 359.793,181.228 363.060,181.996 365.387 C 183.725 370.626,191.552 370.048,192.572 364.606 C 193.279 360.840,188.956 357.326,185.400 358.777 M245.990 362.100 C 242.768 364.283,243.762 367.945,248.370 370.867 C 253.396 374.054,259.012 368.646,255.787 363.724 C 254.196 361.296,248.557 360.361,245.990 362.100 M160.087 366.224 C 156.824 368.510,157.644 374.780,161.424 376.452 C 166.181 378.556,170.834 373.087,167.926 368.810 C 165.948 365.899,162.279 364.689,160.087 366.224 M228.555 366.914 C 224.045 371.046,228.997 378.154,234.375 375.269 C 239.202 372.680,237.241 365.606,231.694 365.601 C 230.322 365.600,229.707 365.857,228.555 366.914 M202.902 367.972 C 200.600 369.639,200.000 370.669,200.000 372.951 C 200.000 379.506,208.619 380.159,210.517 373.748 C 212.165 368.181,207.499 364.642,202.902 367.972 " stroke="none" fill="#4d1a13" fill-rule="evenodd"></path><path id="path1" d="M139.463 212.000 C 137.730 216.738,135.155 229.994,134.061 239.800 C 133.235 247.213,133.002 313.489,133.733 333.200 C 134.613 356.919,134.875 360.968,135.675 363.200 C 140.984 378.009,154.605 386.861,174.428 388.385 C 177.382 388.612,180.160 388.826,180.600 388.861 C 181.040 388.895,187.250 388.941,194.400 388.962 L 207.400 389.000 209.929 387.316 C 223.016 378.602,229.628 367.181,232.225 348.800 C 233.606 339.028,233.447 276.775,231.983 253.800 C 231.393 244.548,229.996 227.494,229.775 226.849 C 229.671 226.546,229.814 226.008,230.093 225.653 C 230.372 225.298,229.880 225.596,229.000 226.314 C 217.283 235.875,211.893 235.629,197.200 224.861 C 187.946 218.079,184.419 217.432,173.000 220.422 C 161.164 223.522,155.515 224.013,150.280 222.396 C 145.570 220.941,141.421 217.124,140.208 213.131 C 139.885 212.068,139.598 211.632,139.463 212.000 M182.674 227.658 C 183.293 227.911,184.860 228.254,186.155 228.421 C 193.752 229.404,196.090 238.332,190.125 243.582 C 181.025 251.593,166.652 238.510,175.182 229.980 C 177.584 227.578,180.361 226.717,182.674 227.658 M172.233 290.243 C 176.315 292.180,176.171 298.008,171.983 300.362 C 168.902 302.093,165.667 300.668,164.612 297.114 C 163.082 291.962,167.487 287.990,172.233 290.243 M190.521 291.908 C 191.862 294.211,190.430 296.800,187.816 296.800 C 185.204 296.800,183.819 293.579,185.437 291.269 C 186.480 289.780,189.504 290.160,190.521 291.908 M220.232 296.056 C 222.151 296.993,222.877 299.699,221.855 302.113 C 220.028 306.431,213.395 306.178,212.566 301.759 C 211.739 297.349,216.153 294.066,220.232 296.056 M170.438 312.219 C 173.814 313.965,174.093 319.310,170.893 320.945 C 167.540 322.658,164.976 321.910,163.653 318.833 C 161.680 314.248,166.075 309.964,170.438 312.219 M209.585 315.392 C 214.118 317.736,212.901 324.403,207.940 324.399 C 202.612 324.394,200.097 317.773,204.497 315.330 C 205.730 314.645,208.198 314.675,209.585 315.392 M193.765 319.707 C 196.992 321.550,197.608 325.397,195.126 328.223 C 190.408 333.597,182.077 326.648,186.680 321.178 C 188.713 318.762,191.204 318.245,193.765 319.707 M227.919 323.258 C 233.735 326.073,231.303 334.764,224.834 334.284 C 220.302 333.948,218.387 329.147,221.224 325.231 C 223.218 322.477,225.138 321.912,227.919 323.258 M148.720 334.562 C 153.862 337.237,152.647 344.558,146.974 345.087 C 144.549 345.313,142.584 344.173,141.465 341.891 C 139.258 337.389,144.322 332.274,148.720 334.562 M173.464 337.057 C 175.304 337.930,176.800 340.180,176.800 342.074 C 176.800 347.746,168.908 349.680,166.209 344.669 C 163.735 340.074,168.745 334.818,173.464 337.057 M203.916 338.762 C 207.701 340.705,207.896 346.116,204.262 348.361 C 202.448 349.483,200.093 349.452,198.359 348.286 C 192.517 344.356,197.656 335.548,203.916 338.762 M227.862 349.328 C 232.455 354.340,226.626 361.877,220.896 358.336 C 219.118 357.237,217.820 354.483,218.179 352.571 C 219.027 348.053,224.893 346.089,227.862 349.328 M156.640 355.760 C 160.185 359.305,155.468 366.565,150.491 365.224 C 147.240 364.349,146.129 360.282,148.391 357.537 C 151.013 354.356,154.488 353.608,156.640 355.760 M190.038 359.019 C 193.654 360.890,193.654 366.710,190.038 368.581 C 187.491 369.897,183.797 368.998,182.410 366.724 C 179.573 362.071,185.114 356.474,190.038 359.019 M165.031 365.959 C 170.992 368.665,169.813 377.200,163.479 377.200 C 158.178 377.200,155.769 368.407,160.394 365.943 C 162.129 365.018,162.967 365.021,165.031 365.959 M209.625 367.824 C 211.830 369.936,211.409 374.500,208.778 377.021 C 206.067 379.619,200.583 377.966,199.780 374.308 C 198.595 368.913,205.805 364.164,209.625 367.824 " stroke="none" fill="#f9e9ab" fill-rule="evenodd"></path><path id="path2" d="M170.893 24.800 C 170.893 25.570,170.975 25.885,171.076 25.500 C 171.176 25.115,171.176 24.485,171.076 24.100 C 170.975 23.715,170.893 24.030,170.893 24.800 M214.505 65.087 C 215.114 65.179,216.014 65.177,216.505 65.082 C 216.997 64.987,216.500 64.911,215.400 64.914 C 214.300 64.917,213.897 64.995,214.505 65.087 M163.693 86.000 C 163.693 86.770,163.775 87.085,163.876 86.700 C 163.976 86.315,163.976 85.685,163.876 85.300 C 163.775 84.915,163.693 85.230,163.693 86.000 M187.739 85.473 C 188.022 85.755,192.472 85.661,192.767 85.366 C 192.858 85.275,191.703 85.200,190.200 85.200 C 188.697 85.200,187.589 85.323,187.739 85.473 M208.900 85.487 C 209.505 85.578,210.495 85.578,211.100 85.487 C 211.705 85.395,211.210 85.320,210.000 85.320 C 208.790 85.320,208.295 85.395,208.900 85.487 M229.907 95.490 C 230.626 95.579,231.706 95.577,232.307 95.486 C 232.908 95.395,232.320 95.322,231.000 95.324 C 229.680 95.326,229.188 95.401,229.907 95.490 M171.331 110.200 C 171.333 111.740,171.405 112.321,171.492 111.491 C 171.579 110.661,171.577 109.401,171.489 108.691 C 171.400 107.981,171.329 108.660,171.331 110.200 M180.300 153.882 C 180.795 153.978,181.605 153.978,182.100 153.882 C 182.595 153.787,182.190 153.709,181.200 153.709 C 180.210 153.709,179.805 153.787,180.300 153.882 M261.281 213.383 C 261.577 213.712,258.599 216.400,257.939 216.400 C 257.726 216.400,257.681 216.608,257.838 216.862 C 257.995 217.116,257.959 217.222,257.758 217.098 C 257.557 216.974,256.585 217.025,255.597 217.211 C 254.416 217.434,252.371 217.353,249.630 216.975 C 244.811 216.310,241.200 216.230,241.200 216.787 C 241.200 217.001,240.953 217.080,240.652 216.964 C 240.350 216.849,239.831 217.026,239.499 217.358 C 239.167 217.690,238.788 217.855,238.657 217.724 C 238.526 217.593,238.306 217.780,238.168 218.140 C 238.029 218.501,237.755 218.696,237.559 218.575 C 237.362 218.453,236.021 219.534,234.579 220.977 C 233.136 222.420,231.821 223.600,231.656 223.600 C 231.492 223.600,230.737 224.257,229.978 225.060 C 229.220 225.863,228.812 226.400,229.071 226.254 C 229.780 225.854,229.888 226.563,230.765 237.400 C 232.806 262.609,233.321 279.935,233.103 316.000 C 232.904 348.796,232.383 354.348,228.590 364.027 C 228.041 365.428,227.669 366.760,227.764 366.987 C 227.859 367.214,227.951 367.164,227.968 366.876 C 227.986 366.588,228.154 366.448,228.343 366.564 C 228.531 366.681,229.011 366.467,229.409 366.088 C 232.559 363.093,238.993 368.800,236.863 372.700 C 236.593 373.195,236.513 373.601,236.686 373.602 C 236.859 373.603,236.190 374.147,235.200 374.810 C 233.235 376.127,229.444 376.413,229.008 375.277 C 228.897 374.987,228.620 374.864,228.393 375.004 C 228.166 375.145,228.025 375.111,228.079 374.930 C 228.133 374.748,227.827 374.074,227.398 373.431 C 226.934 372.736,226.633 371.640,226.657 370.731 C 226.708 368.779,226.858 368.657,224.492 372.500 C 220.772 378.540,216.154 383.229,209.800 387.418 L 207.400 389.000 212.800 389.223 C 216.587 389.380,218.441 389.306,219.006 388.975 C 219.507 388.683,221.020 388.560,223.006 388.650 C 226.444 388.806,235.319 387.777,235.526 387.197 C 235.595 387.004,235.912 386.945,236.231 387.067 C 236.550 387.189,237.049 387.091,237.342 386.848 C 237.634 386.606,237.972 386.506,238.093 386.626 C 238.811 387.344,250.478 381.922,252.442 379.958 C 252.859 379.541,253.360 379.200,253.555 379.200 C 253.750 379.200,254.329 378.673,254.842 378.030 C 255.354 377.386,255.887 376.930,256.025 377.016 C 256.164 377.101,256.789 376.638,257.414 375.986 C 258.038 375.334,258.386 374.800,258.186 374.800 C 257.986 374.800,258.219 374.522,258.704 374.182 C 259.757 373.445,262.133 370.083,262.133 369.331 C 262.133 369.039,262.257 368.800,262.407 368.800 C 262.866 368.800,265.274 363.243,265.004 362.807 C 264.866 362.583,264.936 362.400,265.161 362.400 C 266.028 362.400,266.442 358.991,266.345 352.661 C 266.291 349.092,266.362 345.985,266.504 345.755 C 267.215 344.605,267.683 250.061,267.011 243.200 C 266.914 242.210,266.813 241.130,266.785 240.800 C 266.522 237.638,265.439 229.756,265.246 229.600 C 265.111 229.490,264.974 228.860,264.943 228.200 C 264.828 225.768,263.660 219.982,263.160 219.363 C 262.966 219.123,262.913 218.820,263.044 218.690 C 263.174 218.560,263.136 218.219,262.959 217.934 C 262.782 217.648,262.613 217.141,262.583 216.807 C 262.447 215.295,261.897 213.586,261.469 213.340 C 261.211 213.193,261.126 213.212,261.281 213.383 M181.900 218.689 C 182.615 218.778,183.785 218.778,184.500 218.689 C 185.215 218.601,184.630 218.528,183.200 218.528 C 181.770 218.528,181.185 218.601,181.900 218.689 M251.200 233.218 C 251.970 233.533,252.780 233.732,253.000 233.662 C 253.220 233.591,253.278 233.655,253.129 233.804 C 252.980 233.953,253.463 234.606,254.202 235.255 C 256.854 237.584,257.934 241.305,257.136 245.363 C 256.872 246.703,256.704 247.870,256.762 247.955 C 256.821 248.041,256.687 248.222,256.466 248.359 C 256.245 248.496,256.005 248.854,255.932 249.155 C 255.859 249.457,255.304 250.261,254.698 250.943 C 254.092 251.625,253.501 252.457,253.385 252.791 C 252.116 256.454,240.735 259.326,237.839 256.714 C 237.421 256.336,236.898 256.139,236.678 256.276 C 236.457 256.412,236.396 256.330,236.542 256.094 C 236.688 255.857,236.401 255.330,235.904 254.922 C 235.407 254.514,234.960 254.005,234.911 253.790 C 234.861 253.576,234.534 252.597,234.184 251.616 C 233.536 249.805,233.468 243.472,234.100 243.862 C 234.265 243.964,234.400 243.808,234.400 243.516 C 234.400 243.225,234.856 242.314,235.414 241.493 C 235.972 240.672,236.351 240.000,236.256 240.000 C 236.160 240.000,236.739 239.315,237.541 238.478 C 238.344 237.642,239.090 236.960,239.200 236.963 C 239.666 236.978,241.200 235.773,241.200 235.393 C 241.200 234.860,242.893 233.381,243.342 233.521 C 243.530 233.580,243.938 233.418,244.247 233.161 C 244.860 232.652,249.275 232.036,249.600 232.413 C 249.710 232.541,250.430 232.903,251.200 233.218 M213.507 233.090 C 214.226 233.179,215.306 233.177,215.907 233.086 C 216.508 232.995,215.920 232.922,214.600 232.924 C 213.280 232.926,212.788 233.001,213.507 233.090 M193.309 236.400 C 193.309 237.390,193.387 237.795,193.482 237.300 C 193.578 236.805,193.578 235.995,193.482 235.500 C 193.387 235.005,193.309 235.410,193.309 236.400 M122.101 246.600 C 122.105 247.480,122.187 247.793,122.283 247.295 C 122.379 246.798,122.375 246.078,122.275 245.695 C 122.175 245.313,122.096 245.720,122.101 246.600 M133.301 250.600 C 133.305 251.480,133.387 251.793,133.483 251.295 C 133.579 250.798,133.575 250.078,133.475 249.695 C 133.375 249.313,133.296 249.720,133.301 250.600 M121.753 257.000 C 121.753 259.640,121.818 260.668,121.897 259.284 C 121.975 257.901,121.974 255.741,121.895 254.484 C 121.816 253.228,121.752 254.360,121.753 257.000 M269.334 256.800 C 269.334 258.450,269.405 259.125,269.491 258.300 C 269.578 257.475,269.578 256.125,269.491 255.300 C 269.405 254.475,269.334 255.150,269.334 256.800 M133.354 260.800 C 133.354 263.550,133.418 264.675,133.496 263.300 C 133.574 261.925,133.574 259.675,133.496 258.300 C 133.418 256.925,133.354 258.050,133.354 260.800 M278.961 272.800 C 278.961 276.210,279.022 277.605,279.097 275.900 C 279.172 274.195,279.172 271.405,279.097 269.700 C 279.022 267.995,278.961 269.390,278.961 272.800 M273.293 274.800 C 273.293 275.570,273.375 275.885,273.476 275.500 C 273.576 275.115,273.576 274.485,273.476 274.100 C 273.375 273.715,273.293 274.030,273.293 274.800 M121.744 284.000 C 121.744 286.090,121.812 286.945,121.894 285.900 C 121.976 284.855,121.976 283.145,121.894 282.100 C 121.812 281.055,121.744 281.910,121.744 284.000 M121.742 292.600 C 121.741 294.580,121.808 295.440,121.892 294.512 C 121.976 293.584,121.977 291.964,121.895 290.912 C 121.812 289.860,121.743 290.620,121.742 292.600 M212.493 300.800 C 212.493 301.570,212.575 301.885,212.676 301.500 C 212.776 301.115,212.776 300.485,212.676 300.100 C 212.575 299.715,212.493 300.030,212.493 300.800 M168.900 301.076 C 169.285 301.176,169.915 301.176,170.300 301.076 C 170.685 300.975,170.370 300.893,169.600 300.893 C 168.830 300.893,168.515 300.975,168.900 301.076 M246.399 304.924 C 246.400 305.102,246.580 305.136,246.800 305.000 C 247.020 304.864,247.200 304.931,247.200 305.149 C 247.200 305.547,248.737 306.228,249.300 306.079 C 249.465 306.036,249.577 306.135,249.548 306.300 C 249.461 306.799,250.554 309.200,250.869 309.200 C 251.030 309.200,250.701 310.087,250.139 311.172 C 248.811 313.731,245.077 314.467,243.811 312.418 C 243.665 312.181,243.398 312.078,243.218 312.189 C 243.038 312.300,242.668 312.123,242.396 311.796 C 242.124 311.468,242.042 311.200,242.213 311.200 C 242.384 311.200,242.261 310.885,241.939 310.500 C 240.773 309.103,240.452 307.823,241.009 306.783 C 241.295 306.248,241.427 305.628,241.301 305.405 C 241.175 305.182,241.203 305.118,241.364 305.262 C 241.525 305.405,242.137 305.274,242.724 304.969 C 243.836 304.393,246.398 304.361,246.399 304.924 M122.150 309.800 C 122.151 312.220,122.216 313.158,122.296 311.885 C 122.376 310.612,122.375 308.632,122.294 307.485 C 122.214 306.338,122.149 307.380,122.150 309.800 M269.348 317.600 C 269.348 319.910,269.414 320.855,269.495 319.700 C 269.576 318.545,269.576 316.655,269.495 315.500 C 269.414 314.345,269.348 315.290,269.348 317.600 M133.346 319.000 C 133.347 321.200,133.414 322.049,133.495 320.887 C 133.576 319.724,133.576 317.924,133.493 316.887 C 133.411 315.849,133.345 316.800,133.346 319.000 M190.500 319.076 C 190.885 319.176,191.515 319.176,191.900 319.076 C 192.285 318.975,191.970 318.893,191.200 318.893 C 190.430 318.893,190.115 318.975,190.500 319.076 M251.522 322.618 C 252.198 323.017,253.077 323.986,253.476 324.772 C 253.874 325.557,254.310 326.252,254.446 326.315 C 254.581 326.379,254.519 327.279,254.308 328.315 C 254.098 329.352,253.912 330.417,253.896 330.682 C 253.880 330.948,253.717 331.072,253.533 330.959 C 253.350 330.845,253.200 330.956,253.200 331.205 C 253.200 331.897,252.213 332.731,251.048 333.024 C 250.472 333.168,250.000 333.402,250.000 333.543 C 250.000 333.685,249.370 333.800,248.600 333.800 C 247.830 333.800,247.200 333.677,247.200 333.527 C 247.200 333.377,246.833 333.138,246.385 332.995 C 245.937 332.853,245.120 332.024,244.571 331.154 C 243.948 330.167,243.388 329.676,243.086 329.849 C 242.819 330.003,242.729 329.986,242.886 329.812 C 243.043 329.637,242.972 329.122,242.728 328.666 C 242.171 327.624,241.989 324.800,242.480 324.800 C 242.682 324.800,242.736 324.620,242.600 324.400 C 242.464 324.180,242.498 323.999,242.676 323.998 C 242.854 323.997,243.585 323.448,244.300 322.778 C 245.015 322.108,245.600 321.643,245.600 321.745 C 245.600 321.847,246.095 321.797,246.700 321.633 C 248.040 321.271,249.877 321.646,251.522 322.618 M278.146 333.800 C 278.147 336.000,278.214 336.849,278.295 335.687 C 278.376 334.524,278.376 332.724,278.293 331.687 C 278.211 330.649,278.145 331.600,278.146 333.800 M133.693 331.600 C 133.693 332.370,133.775 332.685,133.876 332.300 C 133.976 331.915,133.976 331.285,133.876 330.900 C 133.775 330.515,133.693 330.830,133.693 331.600 M133.731 336.200 C 133.733 337.740,133.805 338.321,133.892 337.491 C 133.979 336.661,133.977 335.401,133.889 334.691 C 133.800 333.981,133.729 334.660,133.731 336.200 M268.924 335.800 C 268.926 337.120,269.001 337.612,269.090 336.893 C 269.179 336.174,269.177 335.094,269.086 334.493 C 268.995 333.892,268.922 334.480,268.924 335.800 M145.905 334.283 C 146.402 334.379,147.122 334.375,147.505 334.275 C 147.887 334.175,147.480 334.096,146.600 334.101 C 145.720 334.105,145.407 334.187,145.905 334.283 M247.600 344.927 C 247.600 344.593,249.464 346.968,250.012 348.000 C 250.594 349.099,250.761 351.172,250.318 351.800 C 247.212 356.199,241.865 356.360,239.841 352.117 C 238.829 349.996,239.883 346.000,241.454 346.000 C 241.732 346.000,242.144 345.685,242.368 345.300 C 242.592 344.915,242.781 344.719,242.788 344.865 C 242.795 345.011,243.295 344.997,243.900 344.833 C 244.505 344.670,245.585 344.666,246.300 344.826 C 247.015 344.985,247.600 345.031,247.600 344.927 M277.734 351.200 C 277.734 352.850,277.805 353.525,277.891 352.700 C 277.978 351.875,277.978 350.525,277.891 349.700 C 277.805 348.875,277.734 349.550,277.734 351.200 M134.542 357.000 C 134.541 358.980,134.608 359.840,134.692 358.912 C 134.776 357.984,134.777 356.364,134.695 355.312 C 134.612 354.260,134.543 355.020,134.542 357.000 M253.200 361.690 C 257.151 363.402,257.963 367.431,254.990 370.583 C 254.226 371.394,253.600 371.983,253.600 371.892 C 253.600 371.801,252.790 371.850,251.800 372.000 C 250.810 372.150,250.000 372.143,250.000 371.983 C 250.000 371.689,248.448 371.078,247.900 371.157 C 247.735 371.181,247.600 371.025,247.600 370.810 C 247.600 370.596,247.061 370.142,246.403 369.802 C 245.745 369.461,245.250 368.961,245.303 368.691 C 245.356 368.421,245.205 368.235,244.967 368.278 C 244.728 368.321,244.503 368.141,244.466 367.878 C 244.429 367.615,244.289 366.724,244.155 365.897 C 243.531 362.046,248.590 359.693,253.200 361.690 M199.701 373.000 C 199.705 373.880,199.787 374.193,199.883 373.695 C 199.979 373.198,199.975 372.478,199.875 372.095 C 199.775 371.713,199.696 372.120,199.701 373.000 M143.183 375.700 C 144.841 377.466,145.200 377.784,145.200 377.483 C 145.200 377.419,144.345 376.564,143.300 375.583 L 141.400 373.800 143.183 375.700 M175.105 388.683 C 175.602 388.779,176.322 388.775,176.705 388.675 C 177.087 388.575,176.680 388.496,175.800 388.501 C 174.920 388.505,174.607 388.587,175.105 388.683 M194.691 389.089 C 195.401 389.177,196.661 389.179,197.491 389.092 C 198.321 389.005,197.740 388.933,196.200 388.931 C 194.660 388.929,193.981 389.000,194.691 389.089 M202.691 389.089 C 203.401 389.177,204.661 389.179,205.491 389.092 C 206.321 389.005,205.740 388.933,204.200 388.931 C 202.660 388.929,201.981 389.000,202.691 389.089 M170.500 399.876 C 170.885 399.976,171.515 399.976,171.900 399.876 C 172.285 399.775,171.970 399.693,171.200 399.693 C 170.430 399.693,170.115 399.775,170.500 399.876 M186.100 399.894 C 187.145 399.976,188.855 399.976,189.900 399.894 C 190.945 399.812,190.090 399.744,188.000 399.744 C 185.910 399.744,185.055 399.812,186.100 399.894 M209.913 399.895 C 211.076 399.976,212.876 399.976,213.913 399.893 C 214.951 399.811,214.000 399.745,211.800 399.746 C 209.600 399.747,208.751 399.814,209.913 399.895 M228.300 399.882 C 228.795 399.978,229.605 399.978,230.100 399.882 C 230.595 399.787,230.190 399.709,229.200 399.709 C 228.210 399.709,227.805 399.787,228.300 399.882 " stroke="none" fill="#f1c973" fill-rule="evenodd"></path><path id="path3" d="M171.788 0.420 C 171.407 1.035,171.928 1.432,172.442 0.918 C 172.729 0.631,172.736 0.407,172.462 0.239 C 172.239 0.100,171.935 0.182,171.788 0.420 M178.800 0.282 C 178.800 0.496,180.689 0.579,183.300 0.479 C 189.128 0.256,193.056 0.873,196.667 2.576 C 199.953 4.127,200.269 4.569,201.266 9.000 C 201.929 11.952,201.971 12.029,201.802 10.000 C 201.589 7.441,201.468 6.749,201.136 6.200 C 201.003 5.980,200.769 5.215,200.615 4.500 C 200.462 3.785,200.128 3.200,199.874 3.200 C 199.444 3.200,196.032 1.679,194.200 0.670 C 193.199 0.119,178.800 -0.244,178.800 0.282 M175.032 0.747 C 174.914 0.939,174.113 1.208,173.253 1.345 C 172.392 1.483,171.584 1.865,171.457 2.195 C 171.330 2.525,170.872 2.751,170.439 2.698 C 170.005 2.644,169.684 2.780,169.725 3.000 C 169.766 3.220,169.935 3.355,170.100 3.300 C 170.547 3.151,170.463 3.914,170.000 4.200 C 169.502 4.508,169.471 7.704,169.961 8.220 C 170.160 8.429,170.424 8.960,170.549 9.400 C 170.748 10.104,170.612 8.044,170.390 7.000 C 169.840 4.409,171.942 1.880,175.029 1.416 C 177.979 0.974,178.969 0.456,176.924 0.425 C 176.002 0.411,175.151 0.556,175.032 0.747 M202.210 14.544 C 202.605 17.706,203.106 19.717,203.159 18.359 C 203.239 16.334,202.681 12.400,202.314 12.400 C 202.098 12.400,202.055 13.298,202.210 14.544 M196.812 18.900 C 193.685 27.630,187.866 36.582,181.148 43.001 L 177.914 46.091 179.358 60.545 C 180.152 68.495,180.802 75.315,180.801 75.700 C 180.798 77.646,182.816 75.638,187.871 68.664 C 191.520 63.629,196.780 53.218,199.126 46.387 L 200.710 41.773 199.772 33.587 C 199.256 29.084,198.710 23.375,198.559 20.900 C 198.240 15.710,198.037 15.478,196.812 18.900 M170.460 22.100 C 170.427 24.685,170.535 26.800,170.700 26.800 C 170.865 26.800,170.949 25.135,170.887 23.100 C 170.711 17.362,170.526 16.929,170.460 22.100 M203.301 21.000 C 203.305 21.880,203.387 22.193,203.483 21.695 C 203.579 21.198,203.575 20.478,203.475 20.095 C 203.375 19.713,203.296 20.120,203.301 21.000 M203.713 25.100 C 203.829 25.705,204.153 28.224,204.431 30.698 C 204.710 33.172,205.010 35.124,205.098 35.036 C 205.418 34.715,204.222 24.000,203.866 24.000 C 203.665 24.000,203.596 24.495,203.713 25.100 M170.832 30.300 C 170.814 31.675,170.954 32.800,171.141 32.800 C 171.329 32.800,171.405 31.855,171.310 30.700 C 171.056 27.617,170.867 27.460,170.832 30.300 M171.724 39.000 C 171.726 40.320,171.801 40.812,171.890 40.093 C 171.979 39.374,171.977 38.294,171.886 37.693 C 171.795 37.092,171.722 37.680,171.724 39.000 M205.344 37.900 C 205.453 38.285,205.664 39.736,205.813 41.125 C 205.962 42.513,206.172 43.561,206.279 43.454 C 206.628 43.105,205.917 37.200,205.526 37.200 C 205.317 37.200,205.235 37.515,205.344 37.900 M172.000 44.510 C 172.000 45.989,172.192 47.272,172.437 47.423 C 172.747 47.614,172.790 46.894,172.588 44.946 C 172.215 41.373,172.000 41.213,172.000 44.510 M206.440 45.300 C 206.575 46.991,207.122 47.750,207.160 46.300 C 207.182 45.475,207.020 44.800,206.800 44.800 C 206.580 44.800,206.418 45.025,206.440 45.300 M172.450 50.500 C 172.421 52.067,172.568 53.200,172.800 53.200 C 173.264 53.200,173.270 52.129,172.820 49.600 C 172.507 47.839,172.499 47.858,172.450 50.500 M207.063 49.680 C 207.400 51.449,207.600 51.601,207.600 50.090 C 207.600 49.407,207.423 48.738,207.206 48.604 C 206.960 48.452,206.906 48.855,207.063 49.680 M207.693 52.800 C 207.693 53.570,207.775 53.885,207.876 53.500 C 207.976 53.115,207.976 52.485,207.876 52.100 C 207.775 51.715,207.693 52.030,207.693 52.800 M173.246 56.700 C 173.221 58.075,173.336 59.200,173.503 59.200 C 173.669 59.200,173.751 58.345,173.683 57.300 C 173.488 54.260,173.297 53.998,173.246 56.700 M208.025 55.500 C 208.075 56.936,209.112 61.759,209.155 60.759 C 209.238 58.830,208.689 54.800,208.343 54.800 C 208.154 54.800,208.011 55.115,208.025 55.500 M173.638 62.400 C 173.564 65.414,173.117 66.182,171.194 66.594 C 170.427 66.758,169.620 67.014,169.400 67.163 C 169.180 67.311,168.280 67.676,167.400 67.973 C 166.520 68.270,165.710 68.631,165.600 68.776 C 165.490 68.920,164.799 69.459,164.064 69.972 C 162.403 71.133,160.400 73.848,160.400 74.938 C 160.400 75.536,160.704 75.277,161.530 73.978 C 163.604 70.714,166.818 68.506,171.746 66.961 C 174.536 66.086,174.564 66.033,174.080 62.535 L 173.702 59.800 173.638 62.400 M209.200 63.153 C 209.200 63.593,209.380 64.064,209.600 64.200 C 209.820 64.336,210.000 64.087,210.000 63.647 C 210.000 63.207,209.820 62.736,209.600 62.600 C 209.380 62.464,209.200 62.713,209.200 63.153 M169.200 64.800 C 169.200 65.020,169.470 65.200,169.800 65.200 C 170.130 65.200,170.400 65.020,170.400 64.800 C 170.400 64.580,170.130 64.400,169.800 64.400 C 169.470 64.400,169.200 64.580,169.200 64.800 M218.300 65.089 C 219.015 65.178,220.185 65.178,220.900 65.089 C 221.615 65.001,221.030 64.928,219.600 64.928 C 218.170 64.928,217.585 65.001,218.300 65.089 M222.433 65.343 C 222.883 65.727,225.200 65.935,225.200 65.590 C 225.200 65.376,224.540 65.200,223.733 65.200 C 222.927 65.200,222.342 65.264,222.433 65.343 M226.000 66.000 C 226.776 66.501,227.200 66.501,227.200 66.000 C 227.200 65.780,226.795 65.603,226.300 65.606 C 225.572 65.611,225.515 65.686,226.000 66.000 M229.365 66.994 C 230.226 67.329,231.021 67.512,231.132 67.402 C 231.498 67.036,230.920 66.768,229.350 66.576 L 227.800 66.386 229.365 66.994 M233.964 69.100 C 237.235 71.028,239.118 73.213,240.279 76.428 C 241.091 78.676,241.359 77.924,240.646 75.400 C 240.103 73.480,237.009 69.600,236.020 69.600 C 235.811 69.600,235.496 69.359,235.320 69.064 C 235.014 68.553,232.757 67.600,231.849 67.600 C 231.612 67.600,232.564 68.275,233.964 69.100 M162.800 69.200 C 162.800 69.420,163.070 69.600,163.400 69.600 C 163.730 69.600,164.000 69.420,164.000 69.200 C 164.000 68.980,163.730 68.800,163.400 68.800 C 163.070 68.800,162.800 68.980,162.800 69.200 M210.400 70.176 C 210.400 70.967,211.029 71.289,212.957 71.486 C 229.267 73.156,234.400 75.004,234.400 79.204 C 234.400 82.434,232.778 83.280,224.200 84.520 L 220.600 85.040 223.285 85.529 C 227.603 86.316,231.617 86.774,234.300 86.788 L 236.800 86.800 236.801 85.100 C 236.803 77.591,235.822 75.573,231.044 73.254 C 225.376 70.504,210.400 68.271,210.400 70.176 M172.169 72.023 C 171.051 72.453,168.988 73.500,167.583 74.349 L 165.029 75.893 164.546 78.647 C 164.281 80.161,164.049 81.524,164.032 81.676 C 163.768 83.974,186.216 93.541,198.000 96.154 C 209.299 98.659,233.211 100.319,234.625 98.696 C 234.671 98.643,234.827 97.880,234.972 97.000 L 235.236 95.400 230.518 95.345 C 215.018 95.163,194.718 91.398,179.960 85.968 C 177.505 85.064,174.371 84.166,172.996 83.971 C 164.114 82.713,163.412 76.234,171.925 74.072 C 175.229 73.233,175.363 73.144,175.010 72.030 C 174.695 71.038,174.730 71.038,172.169 72.023 M158.400 73.600 C 158.400 73.820,158.670 74.000,159.000 74.000 C 159.330 74.000,159.600 73.820,159.600 73.600 C 159.600 73.380,159.330 73.200,159.000 73.200 C 158.670 73.200,158.400 73.380,158.400 73.600 M211.600 76.750 C 211.600 79.430,212.012 80.000,213.950 80.000 C 216.504 79.999,226.441 78.817,227.129 78.432 C 227.738 78.091,227.783 78.100,218.400 76.806 C 211.328 75.830,211.600 75.833,211.600 76.750 M159.676 77.227 C 159.404 77.662,159.095 78.869,158.988 79.909 C 158.771 82.014,158.834 81.930,159.783 78.856 C 160.498 76.541,160.460 75.971,159.676 77.227 M174.000 78.019 L 172.600 78.256 174.119 78.576 C 175.737 78.917,176.126 78.818,175.678 78.180 C 175.525 77.961,174.770 77.889,174.000 78.019 M241.375 80.100 C 243.307 86.577,241.513 96.149,237.339 101.638 C 235.380 104.214,234.814 104.671,231.529 106.329 L 229.400 107.403 229.368 110.801 C 229.346 113.163,229.382 113.443,229.487 111.718 C 229.649 109.036,231.546 106.686,234.600 105.382 C 235.994 104.787,237.732 103.065,237.337 102.670 C 237.188 102.522,237.277 102.400,237.533 102.400 C 237.790 102.400,238.000 102.161,238.000 101.870 C 238.000 101.578,238.450 100.917,239.000 100.400 C 239.550 99.883,240.000 99.132,240.000 98.730 C 240.000 98.329,240.166 98.000,240.368 98.000 C 240.571 98.000,240.863 97.415,241.018 96.700 C 241.174 95.985,241.485 95.283,241.711 95.139 C 242.711 94.503,242.536 79.200,241.529 79.200 C 241.278 79.200,241.216 79.566,241.375 80.100 M158.000 85.976 C 158.000 88.173,158.178 90.062,158.397 90.198 C 158.650 90.354,158.784 88.916,158.767 86.222 C 158.753 83.900,158.575 82.000,158.371 82.000 C 158.167 82.000,158.000 83.789,158.000 85.976 M164.006 86.904 L 164.012 89.400 168.506 92.080 C 181.862 100.046,197.501 105.454,206.642 105.267 C 212.400 105.150,222.970 103.569,227.773 102.106 L 230.090 101.400 220.945 101.359 C 200.490 101.266,184.051 96.608,166.500 85.930 L 164.000 84.409 164.006 86.904 M196.000 85.006 C 193.910 85.295,191.300 85.558,190.200 85.591 C 182.283 85.827,212.155 91.727,226.600 92.780 C 229.900 93.021,233.338 93.320,234.240 93.445 L 235.880 93.673 236.304 91.536 C 236.817 88.950,237.572 89.353,231.200 88.818 C 225.325 88.326,219.187 87.224,215.380 85.979 C 213.877 85.488,212.493 85.281,211.728 85.434 C 210.712 85.638,205.810 85.270,200.826 84.616 C 200.262 84.542,198.090 84.717,196.000 85.006 M158.981 93.970 C 159.090 95.163,159.341 96.243,159.539 96.370 C 159.737 96.496,160.032 97.211,160.194 97.957 C 160.356 98.704,160.992 99.874,161.607 100.557 C 162.221 101.241,163.484 102.655,164.413 103.700 C 165.342 104.745,166.349 105.600,166.651 105.600 C 166.953 105.600,167.200 105.772,167.200 105.982 C 167.200 106.192,167.808 106.478,168.551 106.617 C 170.417 106.967,170.776 107.907,170.913 112.800 L 171.031 117.000 171.116 112.120 L 171.200 107.241 168.649 106.024 C 164.401 103.996,161.018 99.544,159.361 93.800 L 158.784 91.800 158.981 93.970 M165.380 95.100 C 165.675 96.145,166.033 97.509,166.174 98.132 C 166.666 100.296,173.782 102.662,185.000 104.390 C 189.648 105.106,194.335 105.442,192.200 104.906 C 184.924 103.079,175.601 99.251,168.560 95.199 C 166.649 94.100,165.031 93.200,164.964 93.200 C 164.898 93.200,165.085 94.055,165.380 95.100 M223.756 108.275 C 221.590 108.701,222.175 121.414,224.856 132.200 C 227.521 142.918,233.313 156.754,237.164 161.600 C 237.776 162.370,238.600 163.630,238.996 164.400 C 239.392 165.170,241.455 168.230,243.581 171.200 C 258.746 192.385,267.890 218.570,268.582 242.800 C 268.667 245.770,268.919 249.730,269.143 251.600 C 270.651 264.207,269.125 354.579,267.264 362.892 C 264.105 377.005,251.293 387.225,233.012 390.216 C 228.158 391.010,216.207 391.469,215.507 390.889 C 215.129 390.575,209.583 390.563,195.791 390.845 C 185.236 391.061,174.980 391.123,173.000 390.982 C 156.934 389.843,143.872 383.100,137.005 372.400 C 134.320 368.216,133.451 365.612,132.403 358.600 C 131.232 350.770,130.282 268.411,131.203 254.600 C 131.467 250.640,131.819 244.430,131.986 240.800 C 133.159 215.310,142.180 191.191,159.516 167.200 C 170.417 152.113,177.006 133.501,178.349 114.000 C 178.746 108.238,178.883 108.828,177.081 108.536 L 175.664 108.306 176.077 110.053 C 179.478 124.416,170.787 146.212,150.978 173.000 C 133.031 197.269,126.199 228.799,127.574 281.000 C 127.800 289.580,128.165 307.580,128.385 321.000 C 129.056 361.867,129.275 365.130,131.789 371.809 C 136.914 385.425,150.019 392.735,171.575 394.001 C 195.341 395.397,198.861 395.467,214.800 394.864 C 244.315 393.747,254.072 391.020,263.444 381.266 C 270.923 373.482,271.696 368.371,272.409 322.000 C 272.641 306.930,273.009 288.041,273.227 280.025 C 273.596 266.459,273.120 248.071,272.206 240.600 C 272.098 239.720,271.903 237.560,271.771 235.800 C 269.876 210.417,263.543 192.936,248.117 170.504 C 231.542 146.401,226.857 136.975,224.778 123.545 C 224.297 120.439,224.449 110.635,225.005 108.900 C 225.164 108.405,225.137 108.025,224.947 108.054 C 224.756 108.084,224.220 108.184,223.756 108.275 M180.851 110.400 C 180.812 111.170,180.611 112.520,180.403 113.400 C 180.196 114.280,179.835 117.188,179.601 119.862 C 178.642 130.835,175.685 141.558,170.752 151.957 C 169.458 154.684,168.400 156.969,168.400 157.035 C 168.400 157.102,169.345 156.724,170.500 156.197 C 174.807 154.230,181.332 153.157,184.190 153.946 C 186.102 154.474,186.015 154.570,185.603 152.395 C 185.273 150.654,185.065 149.265,183.803 140.400 C 182.793 133.301,181.543 120.898,181.224 114.800 C 181.058 111.610,180.890 109.630,180.851 110.400 M216.472 109.736 C 213.779 110.110,213.564 110.209,213.789 110.971 C 213.923 111.427,214.190 113.240,214.381 115.000 C 214.572 116.760,215.631 122.430,216.734 127.600 C 217.837 132.770,219.481 140.870,220.389 145.600 C 221.296 150.330,222.124 154.492,222.230 154.849 C 222.373 155.333,223.154 155.571,225.291 155.782 C 226.869 155.937,229.069 156.410,230.180 156.832 C 231.291 157.254,232.232 157.600,232.272 157.600 C 232.312 157.600,231.390 155.575,230.224 153.100 C 223.782 139.429,219.467 120.757,220.564 111.300 C 220.840 108.915,221.252 109.072,216.472 109.736 M183.344 110.660 C 183.721 112.572,183.933 114.338,184.587 121.000 C 185.170 126.938,186.522 138.356,187.026 141.600 C 187.146 142.370,187.503 144.530,187.821 146.400 C 188.138 148.270,188.398 149.978,188.399 150.194 C 188.399 150.411,189.165 149.487,190.100 148.140 C 191.035 146.794,192.549 144.711,193.464 143.512 C 198.174 137.341,204.823 124.382,208.769 113.685 L 209.907 110.600 201.854 110.733 C 194.749 110.851,186.005 110.367,183.859 109.738 C 183.229 109.553,183.152 109.690,183.344 110.660 M229.778 119.034 C 230.100 121.056,230.400 121.276,230.400 119.490 C 230.400 118.697,230.206 117.927,229.968 117.781 C 229.674 117.598,229.614 117.996,229.778 119.034 M170.501 120.200 C 170.505 121.080,170.587 121.393,170.683 120.895 C 170.779 120.398,170.775 119.678,170.675 119.295 C 170.575 118.913,170.496 119.320,170.501 120.200 M230.493 122.800 C 230.493 123.570,230.575 123.885,230.676 123.500 C 230.776 123.115,230.776 122.485,230.676 122.100 C 230.575 121.715,230.493 122.030,230.493 122.800 M169.886 122.273 C 169.587 122.775,169.097 126.800,169.334 126.800 C 169.624 126.800,170.516 122.383,170.275 122.142 C 170.168 122.034,169.993 122.094,169.886 122.273 M231.213 126.616 C 231.101 130.256,239.006 146.512,245.403 155.800 C 259.456 176.205,262.482 181.043,266.371 189.337 C 267.625 192.012,268.960 194.830,269.337 195.600 L 270.023 197.000 269.806 195.620 C 269.686 194.861,269.433 194.141,269.244 194.020 C 269.055 193.899,268.774 193.215,268.618 192.500 C 268.463 191.785,268.199 191.200,268.032 191.200 C 267.864 191.200,267.511 190.480,267.247 189.600 C 266.984 188.720,266.595 188.000,266.384 188.000 C 266.173 188.000,266.000 187.778,266.000 187.506 C 266.000 186.949,263.956 182.711,263.536 182.396 C 263.386 182.284,263.140 181.699,262.988 181.096 C 262.837 180.493,262.555 180.000,262.362 180.000 C 262.169 180.000,261.737 179.415,261.403 178.700 C 261.068 177.985,260.350 176.680,259.807 175.800 C 259.264 174.920,258.704 173.885,258.563 173.500 C 258.422 173.115,258.143 172.800,257.943 172.800 C 257.744 172.800,257.409 172.350,257.200 171.800 C 256.991 171.250,256.635 170.800,256.410 170.800 C 256.184 170.800,256.000 170.558,256.000 170.262 C 256.000 169.966,255.640 169.398,255.200 169.000 C 254.760 168.602,254.400 168.050,254.400 167.774 C 254.400 167.498,253.714 166.401,252.876 165.336 C 252.038 164.271,251.234 163.085,251.089 162.700 C 250.944 162.315,250.639 162.000,250.413 162.000 C 250.186 162.000,250.000 161.816,250.000 161.591 C 250.000 161.115,248.119 158.153,247.100 157.025 C 246.715 156.598,246.400 156.032,246.400 155.767 C 246.400 155.502,246.130 155.182,245.800 155.055 C 245.470 154.929,245.200 154.549,245.200 154.213 C 245.200 153.876,245.030 153.600,244.822 153.600 C 244.469 153.600,243.987 152.863,242.728 150.400 C 242.447 149.850,242.002 149.264,241.740 149.098 C 241.477 148.931,241.147 148.271,241.007 147.631 C 240.866 146.991,240.509 146.374,240.213 146.260 C 239.917 146.147,239.554 145.502,239.406 144.827 C 239.258 144.152,239.007 143.600,238.849 143.600 C 238.690 143.600,238.319 142.925,238.024 142.100 C 237.729 141.275,237.376 140.510,237.240 140.400 C 236.745 140.001,234.800 135.770,234.800 135.094 C 234.800 134.712,234.628 134.400,234.418 134.400 C 234.208 134.400,233.918 133.770,233.774 133.000 C 233.629 132.230,233.357 131.600,233.168 131.600 C 232.979 131.600,232.922 131.348,233.040 131.040 C 233.158 130.733,233.062 130.362,232.827 130.217 C 232.592 130.072,232.400 129.458,232.400 128.853 C 232.400 127.845,231.242 125.663,231.213 126.616 M167.635 131.000 C 167.364 132.210,166.996 133.200,166.816 133.200 C 166.636 133.200,166.371 133.830,166.226 134.600 C 166.082 135.370,165.806 136.000,165.614 136.000 C 165.421 136.000,165.138 136.570,164.986 137.266 C 164.833 137.962,164.278 139.339,163.754 140.325 C 163.229 141.312,162.800 142.362,162.800 142.660 C 162.800 142.957,162.620 143.200,162.400 143.200 C 162.180 143.200,162.000 143.461,162.000 143.780 C 162.000 144.099,161.764 144.504,161.477 144.680 C 161.189 144.856,160.706 145.630,160.403 146.400 C 160.101 147.170,159.572 148.184,159.227 148.654 C 158.882 149.123,158.330 149.910,158.000 150.403 C 157.670 150.895,157.220 151.501,157.000 151.749 C 156.780 151.997,156.330 152.740,156.001 153.400 C 155.671 154.060,155.176 154.744,154.901 154.920 C 154.625 155.096,154.400 155.422,154.400 155.644 C 154.400 155.866,153.815 156.835,153.100 157.797 C 152.385 158.759,151.260 160.455,150.600 161.566 C 149.940 162.676,149.220 163.616,149.000 163.653 C 148.780 163.691,148.420 163.743,148.200 163.769 C 147.980 163.794,147.800 163.992,147.800 164.208 C 147.800 164.423,147.935 164.555,148.100 164.500 C 148.265 164.445,148.400 164.580,148.400 164.800 C 148.400 165.020,148.214 165.200,147.987 165.200 C 147.761 165.200,147.458 165.515,147.314 165.900 C 146.985 166.784,145.498 168.957,145.100 169.133 C 144.935 169.207,144.800 169.511,144.800 169.811 C 144.800 170.110,144.453 170.598,144.028 170.895 C 143.604 171.193,143.134 171.925,142.984 172.523 C 142.834 173.121,142.506 173.743,142.255 173.905 C 141.698 174.266,140.978 175.378,140.187 177.100 C 139.858 177.815,139.426 178.400,139.226 178.400 C 139.027 178.400,138.745 178.940,138.600 179.600 C 138.455 180.260,138.185 180.800,137.999 180.800 C 137.814 180.800,137.454 181.430,137.200 182.200 C 136.946 182.970,136.590 183.600,136.408 183.600 C 136.109 183.600,135.215 185.660,135.253 186.262 C 135.261 186.399,135.118 186.621,134.934 186.755 C 134.509 187.066,133.408 189.356,132.748 191.300 C 132.468 192.125,132.115 192.800,131.964 192.800 C 131.813 192.800,131.571 193.430,131.426 194.200 C 131.282 194.970,131.026 195.600,130.857 195.600 C 130.689 195.600,130.312 196.545,130.019 197.700 C 129.726 198.855,129.371 199.890,129.230 200.000 C 129.089 200.110,128.738 201.369,128.451 202.799 C 128.163 204.228,127.790 205.488,127.622 205.599 C 127.453 205.709,127.183 206.520,127.022 207.400 C 126.860 208.280,126.585 209.180,126.409 209.400 C 126.060 209.836,125.380 215.127,125.715 214.800 C 125.827 214.690,126.395 212.620,126.976 210.200 C 130.719 194.608,136.315 183.303,150.241 163.200 C 161.432 147.046,171.101 128.800,168.471 128.800 C 168.282 128.800,167.906 129.790,167.635 131.000 M164.800 133.200 C 164.800 133.420,165.070 133.600,165.400 133.600 C 165.730 133.600,166.000 133.420,166.000 133.200 C 166.000 132.980,165.730 132.800,165.400 132.800 C 165.070 132.800,164.800 132.980,164.800 133.200 M162.877 137.630 C 162.956 137.867,163.191 138.060,163.400 138.060 C 163.609 138.060,163.845 137.867,163.923 137.630 C 164.002 137.393,163.767 137.200,163.400 137.200 C 163.033 137.200,162.798 137.393,162.877 137.630 M215.841 146.674 C 214.541 150.587,208.232 159.068,204.741 161.597 C 203.877 162.222,203.333 162.835,203.531 162.957 C 204.548 163.586,220.000 162.491,220.000 161.791 C 220.000 161.720,219.648 160.164,219.218 158.332 C 218.788 156.499,218.056 152.754,217.593 150.008 C 216.598 144.117,216.655 144.226,215.841 146.674 M158.400 146.600 C 158.400 146.967,158.594 147.202,158.830 147.123 C 159.067 147.044,159.260 146.809,159.260 146.600 C 159.260 146.391,159.067 146.156,158.830 146.077 C 158.594 145.998,158.400 146.233,158.400 146.600 M151.600 157.600 C 151.600 157.820,151.870 158.000,152.200 158.000 C 152.530 158.000,152.800 157.820,152.800 157.600 C 152.800 157.380,152.530 157.200,152.200 157.200 C 151.870 157.200,151.600 157.380,151.600 157.600 M149.600 159.800 C 149.600 160.130,149.780 160.400,150.000 160.400 C 150.220 160.400,150.400 160.130,150.400 159.800 C 150.400 159.470,150.220 159.200,150.000 159.200 C 149.780 159.200,149.600 159.470,149.600 159.800 M140.800 173.000 C 140.800 173.330,140.980 173.600,141.200 173.600 C 141.420 173.600,141.600 173.330,141.600 173.000 C 141.600 172.670,141.420 172.400,141.200 172.400 C 140.980 172.400,140.800 172.670,140.800 173.000 M134.077 184.030 C 134.156 184.267,134.391 184.460,134.600 184.460 C 134.809 184.460,135.044 184.267,135.123 184.030 C 135.202 183.793,134.967 183.600,134.600 183.600 C 134.233 183.600,133.998 183.793,134.077 184.030 M132.000 188.600 C 132.000 188.930,132.180 189.200,132.400 189.200 C 132.620 189.200,132.800 188.930,132.800 188.600 C 132.800 188.270,132.620 188.000,132.400 188.000 C 132.180 188.000,132.000 188.270,132.000 188.600 M270.046 197.349 C 270.009 197.629,272.419 205.446,273.022 207.000 C 273.107 207.220,273.068 206.500,272.934 205.400 C 272.800 204.300,272.534 203.340,272.343 203.266 C 272.151 203.192,272.102 202.959,272.232 202.748 C 272.362 202.537,272.289 202.148,272.070 201.882 C 271.851 201.617,271.545 200.725,271.391 199.900 C 271.237 199.075,270.964 198.400,270.785 198.400 C 270.605 198.400,270.376 198.085,270.276 197.700 C 270.175 197.315,270.072 197.157,270.046 197.349 M127.600 199.400 C 127.600 199.730,127.780 200.000,128.000 200.000 C 128.220 200.000,128.400 199.730,128.400 199.400 C 128.400 199.070,128.220 198.800,128.000 198.800 C 127.780 198.800,127.600 199.070,127.600 199.400 M273.206 208.076 C 273.218 209.081,273.987 209.908,273.994 208.924 C 273.997 208.442,273.820 207.936,273.600 207.800 C 273.380 207.664,273.203 207.788,273.206 208.076 M273.902 211.000 C 274.007 211.550,274.162 212.000,274.247 212.000 C 274.331 212.000,274.400 211.550,274.400 211.000 C 274.400 210.450,274.245 210.000,274.055 210.000 C 273.866 210.000,273.797 210.450,273.902 211.000 M123.078 214.656 C 122.758 214.975,123.119 215.600,123.624 215.600 C 123.831 215.600,124.000 215.330,124.000 215.000 C 124.000 214.381,123.528 214.205,123.078 214.656 M274.987 215.958 C 275.119 216.376,275.382 217.501,275.570 218.458 C 275.868 219.972,275.918 220.037,275.956 218.950 C 276.017 217.203,275.573 215.200,275.123 215.200 C 274.916 215.200,274.854 215.541,274.987 215.958 M124.692 217.842 C 124.531 218.002,124.416 218.778,124.436 219.567 L 124.472 221.000 124.857 219.663 C 125.263 218.252,125.182 217.352,124.692 217.842 M276.225 222.865 C 276.368 224.039,276.642 225.720,276.833 226.600 C 277.024 227.480,277.199 228.920,277.222 229.800 C 277.245 230.680,277.359 231.160,277.476 230.867 C 277.788 230.084,276.767 221.227,276.333 220.959 C 276.112 220.822,276.068 221.589,276.225 222.865 M124.101 223.000 C 124.105 223.880,124.187 224.193,124.283 223.695 C 124.379 223.198,124.375 222.478,124.275 222.095 C 124.175 221.713,124.096 222.120,124.101 223.000 M120.800 226.000 C 120.800 226.220,121.070 226.400,121.400 226.400 C 121.730 226.400,122.000 226.220,122.000 226.000 C 122.000 225.780,121.730 225.600,121.400 225.600 C 121.070 225.600,120.800 225.780,120.800 226.000 M122.800 231.267 C 122.800 234.250,123.004 234.191,123.379 231.100 C 123.566 229.557,123.516 228.800,123.229 228.800 C 122.970 228.800,122.800 229.779,122.800 231.267 M277.902 236.300 C 278.180 238.889,278.400 238.962,278.400 236.467 C 278.400 235.330,278.242 234.400,278.049 234.400 C 277.856 234.400,277.790 235.255,277.902 236.300 M122.528 237.600 C 122.528 239.030,122.601 239.615,122.689 238.900 C 122.778 238.185,122.778 237.015,122.689 236.300 C 122.601 235.585,122.528 236.170,122.528 237.600 M121.600 246.667 C 121.600 249.453,121.665 251.658,121.745 251.567 C 122.135 251.119,122.389 241.600,122.011 241.600 C 121.751 241.600,121.600 243.463,121.600 246.667 M278.540 245.200 C 278.540 247.070,278.609 247.835,278.693 246.900 C 278.777 245.965,278.777 244.435,278.693 243.500 C 278.609 242.565,278.540 243.330,278.540 245.200 M278.934 264.000 C 278.934 265.650,279.005 266.325,279.091 265.500 C 279.178 264.675,279.178 263.325,279.091 262.500 C 279.005 261.675,278.934 262.350,278.934 264.000 M121.200 276.776 C 121.200 283.143,121.335 288.436,121.500 288.538 C 121.665 288.641,121.800 283.431,121.800 276.962 C 121.800 270.493,121.665 265.200,121.500 265.200 C 121.335 265.200,121.200 270.409,121.200 276.776 M278.948 283.600 C 278.948 285.910,279.014 286.855,279.095 285.700 C 279.176 284.545,279.176 282.655,279.095 281.500 C 279.014 280.345,278.948 281.290,278.948 283.600 M121.600 309.910 C 121.600 318.840,121.742 323.641,122.012 323.807 C 122.395 324.044,122.130 296.876,121.745 296.433 C 121.665 296.342,121.600 302.406,121.600 309.910 M278.572 313.600 C 278.572 318.770,278.629 320.885,278.699 318.300 C 278.768 315.715,278.768 311.485,278.699 308.900 C 278.629 306.315,278.572 308.430,278.572 313.600 M122.485 343.300 C 122.438 349.845,122.535 355.200,122.700 355.200 C 122.865 355.201,122.954 351.736,122.898 347.500 C 122.702 332.811,122.569 331.461,122.485 343.300 M277.959 347.600 C 277.826 353.210,277.781 357.875,277.859 357.967 C 278.324 358.516,278.403 356.690,278.307 347.560 L 278.200 337.400 277.959 347.600 M122.800 359.800 C 122.800 361.083,122.926 362.007,123.080 361.854 C 123.364 361.569,123.265 357.938,122.965 357.633 C 122.874 357.542,122.800 358.517,122.800 359.800 M277.309 362.400 C 277.309 363.390,277.387 363.795,277.482 363.300 C 277.578 362.805,277.578 361.995,277.482 361.500 C 277.387 361.005,277.309 361.410,277.309 362.400 M123.228 364.676 C 123.213 365.378,123.380 366.064,123.600 366.200 C 124.080 366.496,124.080 365.316,123.600 364.200 C 123.310 363.526,123.252 363.600,123.228 364.676 M276.290 368.029 C 273.799 380.687,266.120 389.552,252.688 395.275 C 249.428 396.664,249.207 396.819,250.788 396.605 C 251.771 396.471,252.671 396.216,252.788 396.038 C 252.905 395.859,253.720 395.470,254.600 395.174 C 255.480 394.877,256.484 394.402,256.831 394.117 C 257.179 393.833,257.764 393.600,258.131 393.600 C 258.499 393.600,258.800 393.442,258.800 393.249 C 258.800 393.055,259.385 392.655,260.100 392.360 C 260.815 392.064,261.760 391.455,262.200 391.005 C 262.640 390.556,263.502 389.932,264.114 389.619 C 265.237 389.045,269.600 384.906,269.600 384.415 C 269.600 384.270,269.920 383.802,270.311 383.375 C 270.703 382.949,271.542 381.700,272.177 380.600 C 272.811 379.500,273.437 378.510,273.568 378.400 C 273.921 378.101,274.800 375.442,274.800 374.672 C 274.800 374.302,274.960 374.000,275.155 374.000 C 275.350 374.000,275.630 373.194,275.778 372.209 C 275.925 371.224,276.203 370.322,276.395 370.203 C 276.792 369.958,277.372 365.915,277.119 365.157 C 277.028 364.883,276.654 366.175,276.290 368.029 M124.261 369.600 C 124.388 371.030,124.641 372.257,124.823 372.326 C 125.005 372.395,125.373 373.430,125.641 374.626 C 125.908 375.822,126.264 376.800,126.432 376.800 C 126.599 376.800,126.855 377.340,127.000 378.000 C 127.145 378.660,127.429 379.200,127.632 379.200 C 127.834 379.200,128.000 379.456,128.000 379.769 C 128.000 380.082,128.450 380.873,129.000 381.527 C 129.550 382.181,130.000 382.817,130.000 382.941 C 130.000 383.593,138.400 391.200,139.120 391.200 C 139.337 391.200,139.612 391.453,139.730 391.762 C 139.849 392.072,140.498 392.446,141.173 392.594 C 141.848 392.742,142.400 392.992,142.400 393.149 C 142.400 393.525,146.938 395.600,147.760 395.600 C 148.112 395.600,148.400 395.762,148.400 395.960 C 148.400 396.346,152.321 397.412,152.624 397.109 C 152.724 397.010,152.039 396.699,151.103 396.419 C 137.441 392.335,127.779 382.261,124.422 368.600 C 124.085 367.227,124.062 367.369,124.261 369.600 M245.600 397.633 L 243.000 398.388 245.164 398.172 C 246.355 398.053,247.700 397.695,248.153 397.378 C 249.184 396.656,248.847 396.689,245.600 397.633 M153.400 397.600 C 153.536 397.820,154.042 397.997,154.524 397.994 C 155.236 397.989,155.288 397.915,154.800 397.600 C 154.012 397.091,153.085 397.091,153.400 397.600 M155.600 398.055 C 155.600 398.245,156.050 398.400,156.600 398.400 C 157.150 398.400,157.600 398.331,157.600 398.247 C 157.600 398.162,157.150 398.007,156.600 397.902 C 156.050 397.797,155.600 397.866,155.600 398.055 M158.400 398.800 C 158.400 399.020,158.985 399.197,159.700 399.194 C 160.686 399.189,160.855 399.094,160.400 398.800 C 159.614 398.292,158.400 398.292,158.400 398.800 M240.600 398.800 C 239.958 399.076,240.097 399.149,241.300 399.172 C 242.125 399.187,242.800 399.020,242.800 398.800 C 242.800 398.322,241.712 398.322,240.600 398.800 M161.600 399.225 C 161.600 399.431,162.350 399.600,163.267 399.600 C 165.241 399.600,165.177 399.402,163.100 399.082 C 162.269 398.954,161.600 399.018,161.600 399.225 M234.600 399.466 L 230.600 399.951 234.512 399.830 C 237.916 399.726,239.353 399.476,238.767 399.090 C 238.675 399.030,236.800 399.199,234.600 399.466 M165.600 399.689 C 165.600 399.860,166.635 399.979,167.900 399.954 C 170.341 399.904,170.102 399.728,167.300 399.511 C 166.365 399.438,165.600 399.519,165.600 399.689 M196.200 399.600 L 192.200 399.845 196.524 399.923 C 199.323 399.973,200.760 399.859,200.600 399.600 C 200.464 399.380,200.318 399.235,200.276 399.277 C 200.234 399.320,198.400 399.465,196.200 399.600 M204.300 399.889 C 205.015 399.978,206.185 399.978,206.900 399.889 C 207.615 399.801,207.030 399.728,205.600 399.728 C 204.170 399.728,203.585 399.801,204.300 399.889 " stroke="none" fill="#d1e5f5" fill-rule="evenodd"></path><path id="path4" d="M179.300 5.889 C 174.779 6.450,182.345 7.465,187.590 7.001 C 195.418 6.308,195.519 5.687,187.800 5.708 C 183.840 5.719,180.015 5.801,179.300 5.889 M196.307 9.228 C 193.364 10.943,181.995 11.750,176.303 10.649 C 173.042 10.017,173.223 9.851,173.850 12.899 C 174.465 15.892,176.182 29.166,176.786 35.600 C 177.024 38.130,177.313 40.788,177.428 41.506 L 177.638 42.811 179.094 41.706 C 185.314 36.982,193.070 24.477,196.404 13.800 C 197.022 11.820,197.653 9.885,197.807 9.500 C 198.123 8.706,197.422 8.579,196.307 9.228 M170.542 13.800 C 170.541 15.780,170.608 16.640,170.692 15.712 C 170.776 14.784,170.777 13.164,170.695 12.112 C 170.612 11.060,170.543 11.820,170.542 13.800 M199.652 50.800 C 195.991 61.308,189.976 71.839,184.063 78.093 C 182.231 80.031,181.621 79.860,192.356 80.407 C 202.677 80.933,207.804 80.709,207.436 79.748 C 206.456 77.196,203.463 60.651,201.728 48.200 L 201.393 45.800 199.652 50.800 M215.700 99.076 C 216.085 99.176,216.715 99.176,217.100 99.076 C 217.485 98.975,217.170 98.893,216.400 98.893 C 215.630 98.893,215.315 98.975,215.700 99.076 M231.107 99.090 C 231.826 99.179,232.906 99.177,233.507 99.086 C 234.108 98.995,233.520 98.922,232.200 98.924 C 230.880 98.926,230.388 99.001,231.107 99.090 M219.116 101.497 C 220.499 101.575,222.659 101.574,223.916 101.495 C 225.172 101.416,224.040 101.352,221.400 101.353 C 218.760 101.353,217.732 101.418,219.116 101.497 M209.681 113.790 C 206.673 124.014,198.847 138.787,192.153 146.876 C 191.299 147.908,190.160 149.563,189.621 150.553 L 188.643 152.353 189.341 155.476 C 189.725 157.194,190.114 158.960,190.204 159.400 C 190.379 160.248,192.808 161.131,197.952 162.214 L 200.504 162.751 203.184 160.613 C 208.765 156.160,211.153 153.200,214.231 146.919 L 216.261 142.776 214.336 131.488 C 213.278 125.280,212.211 118.580,211.965 116.600 C 211.221 110.600,210.779 110.056,209.681 113.790 M229.293 115.600 C 229.293 116.370,229.375 116.685,229.476 116.300 C 229.576 115.915,229.576 115.285,229.476 114.900 C 229.375 114.515,229.293 114.830,229.293 115.600 M278.514 250.600 C 278.517 251.700,278.595 252.103,278.687 251.495 C 278.779 250.886,278.777 249.986,278.682 249.495 C 278.587 249.003,278.511 249.500,278.514 250.600 M127.693 252.400 C 127.693 253.170,127.775 253.485,127.876 253.100 C 127.976 252.715,127.976 252.085,127.876 251.700 C 127.775 251.315,127.693 251.630,127.693 252.400 M272.901 253.000 C 272.905 253.880,272.987 254.193,273.083 253.695 C 273.179 253.198,273.175 252.478,273.075 252.095 C 272.975 251.713,272.896 252.120,272.901 253.000 M130.934 261.200 C 130.934 262.850,131.005 263.525,131.091 262.700 C 131.178 261.875,131.178 260.525,131.091 259.700 C 131.005 258.875,130.934 259.550,130.934 261.200 M267.331 269.400 C 267.333 270.940,267.405 271.521,267.492 270.691 C 267.579 269.861,267.577 268.601,267.489 267.891 C 267.400 267.181,267.329 267.860,267.331 269.400 M127.324 275.800 C 127.326 277.120,127.401 277.612,127.490 276.893 C 127.579 276.174,127.577 275.094,127.486 274.493 C 127.395 273.892,127.322 274.480,127.324 275.800 M272.934 291.600 C 272.934 293.250,273.005 293.925,273.091 293.100 C 273.178 292.275,273.178 290.925,273.091 290.100 C 273.005 289.275,272.934 289.950,272.934 291.600 M127.737 292.600 C 127.739 294.360,127.809 295.030,127.893 294.089 C 127.978 293.149,127.977 291.709,127.891 290.889 C 127.805 290.070,127.736 290.840,127.737 292.600 M278.553 299.400 C 278.553 302.040,278.618 303.068,278.697 301.684 C 278.775 300.301,278.774 298.141,278.695 296.884 C 278.616 295.628,278.552 296.760,278.553 299.400 M130.951 310.800 C 130.951 313.330,131.016 314.365,131.096 313.100 C 131.175 311.835,131.175 309.765,131.096 308.500 C 131.016 307.235,130.951 308.270,130.951 310.800 M272.544 311.600 C 272.544 313.690,272.612 314.545,272.694 313.500 C 272.776 312.455,272.776 310.745,272.694 309.700 C 272.612 308.655,272.544 309.510,272.544 311.600 M131.324 332.600 C 131.326 333.920,131.401 334.412,131.490 333.693 C 131.579 332.974,131.577 331.894,131.486 331.293 C 131.395 330.692,131.322 331.280,131.324 332.600 M128.528 335.200 C 128.528 336.630,128.601 337.215,128.689 336.500 C 128.778 335.785,128.778 334.615,128.689 333.900 C 128.601 333.185,128.528 333.770,128.528 335.200 M272.134 335.600 C 272.134 337.250,272.205 337.925,272.291 337.100 C 272.378 336.275,272.378 334.925,272.291 334.100 C 272.205 333.275,272.134 333.950,272.134 335.600 M131.693 345.200 C 131.693 345.970,131.775 346.285,131.876 345.900 C 131.976 345.515,131.976 344.885,131.876 344.500 C 131.775 344.115,131.693 344.430,131.693 345.200 M122.928 352.400 C 122.928 353.830,123.001 354.415,123.089 353.700 C 123.178 352.985,123.178 351.815,123.089 351.100 C 123.001 350.385,122.928 350.970,122.928 352.400 M187.300 390.691 C 188.125 390.778,189.475 390.778,190.300 390.691 C 191.125 390.605,190.450 390.534,188.800 390.534 C 187.150 390.534,186.475 390.605,187.300 390.691 M183.107 394.690 C 183.826 394.779,184.906 394.777,185.507 394.686 C 186.108 394.595,185.520 394.522,184.200 394.524 C 182.880 394.526,182.388 394.601,183.107 394.690 M207.300 395.076 C 207.685 395.176,208.315 395.176,208.700 395.076 C 209.085 394.975,208.770 394.893,208.000 394.893 C 207.230 394.893,206.915 394.975,207.300 395.076 " stroke="none" fill="#e33e4f" fill-rule="evenodd"></path></g></svg>